<svg width="800" height="400" viewBox="0 0 800 400" xmlns="http://www.w3.org/2000/svg">
  <rect width="800" height="400" fill="black" />
  
  <defs>
    <radialGradient id="redGradient" cx="50%" cy="50%" r="50%" fx="60%" fy="40%">
      <stop offset="0%" style="stop-color:#d41e2d;stop-opacity:1" />
      <stop offset="100%" style="stop-color:#8b0000;stop-opacity:1" />
    </radialGradient>
  </defs>

  <circle cx="200" cy="200" r="110" fill="url(#redGradient)" />
  
  <g fill="white">
    <path d="M145,260 Q160,200 230,165 Q260,150 290,165 L285,175 Q255,165 225,180 Q165,210 160,270 Z" />
    <path d="M165,275 Q185,210 245,185 Q270,175 295,185 L292,193 Q268,185 242,195 Q195,215 180,285 Z" />
    <path d="M185,290 Q210,230 260,210 Q280,203 300,210 L298,217 Q280,212 260,220 Q220,240 200,295 Z" />
  </g>

  <text x="340" y="225" font-family="Arial, Helvetica, sans-serif" font-size="95" font-weight="500" fill="white" letter-spacing="2">OCHIGA</text>
</svg>
