<svg width="800" height="400" viewBox="0 0 800 400" xmlns="http://www.w3.org/2000/svg">
  <rect width="800" height="400" fill="black" />
  
  <defs>
    <radialGradient id="redGradient" cx="50%" cy="50%" r="50%" fx="60%" fy="40%">
      <stop offset="0%" style="stop-color:#d41e2d;stop-opacity:1" />
      <stop offset="100%" style="stop-color:#8b0000;stop-opacity:1" />
    </radialGradient>
  </defs>

  <circle cx="200" cy="200" r="110" fill="url(#redGradient)" />
  
  <g fill="white">
    <path d="M137.5 245.3 C 148.9 200.2 183.6 167.9 225.2 153.2 C 254.9 142.6 287.3 143.8 316.2 156.6 C 295.1 153.6 273.7 154.8 253.1 160.4 C 204.1 173.6 164.8 208.8 149.9 256.8 Z" />
    <path d="M155.4 267.2 C 166.3 220.7 200.1 187.6 240.6 173.7 C 268.2 164.3 298.1 166.5 324.3 179.9 C 302.9 175.4 281.2 175.5 260.6 180.6 C 213.3 192.4 176.4 226.3 165.7 276.3 Z" />
    <path d="M174.3 285.6 C 184.6 239.6 216.9 207.5 255.7 194.7 C 280.3 186.5 306.5 188.7 329.6 201.1 C 307.3 196.7 285.3 197.2 264.4 203.2 C 220.6 215.7 188.5 248.3 183.2 292.8 Z" />
  </g>

  <text x="340" y="225" font-family="Arial, Helvetica, sans-serif" font-size="95" font-weight="500" fill="white" letter-spacing="2">OCHIGA</text>
</svg>
